<svg width="66" height="53" viewBox="0 0 66 53" fill="none" xmlns="http://www.w3.org/2000/svg">
<rect x="6.8723" width="14.0228" height="7.06934" rx="2.85898" fill="#6596BD"/>
<rect x="45.0003" width="14.0228" height="7.06934" rx="2.85898" fill="#6596BD"/>
<path d="M0.498276 15.0287C0.498276 8.7128 5.61831 3.59277 11.9342 3.59277H53.9612C60.2771 3.59277 65.3971 8.71281 65.3971 15.0287V31.7395C65.3971 38.8313 59.0111 44.1607 51.9733 43.2871C38.6232 41.63 27.6973 41.5797 13.9404 43.2799C6.8947 44.1507 0.498276 38.8164 0.498276 31.7171V15.0287Z" fill="#6596BD"/>
<path d="M0.498276 31.059C0.498276 25.4266 5.06425 20.8606 10.6967 20.8606V20.8606C16.3291 20.8606 20.8951 25.4266 20.8951 31.059V46.8967C20.8951 50.0547 18.335 52.6147 15.1771 52.6147H11.9342C5.6183 52.6147 0.498276 47.4946 0.498276 41.1788V31.059Z" fill="#6596BD"/>
<path d="M45.0003 31.059C45.0003 25.4266 49.5662 20.8606 55.1987 20.8606V20.8606C60.8311 20.8606 65.3971 25.4266 65.3971 31.059V41.1788C65.3971 47.4946 60.277 52.6147 53.9611 52.6147H50.7182C47.5603 52.6147 45.0003 50.0547 45.0003 46.8967V31.059Z" fill="#6596BD"/>
<path d="M2.23666 17.1378C2.23666 10.8219 7.3567 5.7019 13.6726 5.7019H52.2839C58.5998 5.7019 63.7199 10.8219 63.7199 17.1378V27.4411C63.7199 33.757 58.5998 38.877 52.284 38.877H2.23666V17.1378Z" fill="#F9F9FC"/>
<path d="M12.6119 34.999C9.49931 34.9994 2.2366 34.999 2.2366 34.999V44.9335C2.2366 45.345 3.21138 45.4189 3.32714 45.0181C3.9043 43.0198 4.30082 41.3238 5.68521 39.4633C7.65795 36.8121 10.3447 34.9992 12.6119 34.999Z" fill="#F9F9FC"/>
<circle cx="43.3775" cy="16.0394" r="5.79454" fill="#565E70"/>
<circle cx="22.5172" cy="16.0394" r="5.79454" fill="#565E70"/>
<path d="M38.742 28.3237C38.742 31.524 36.1477 34.1183 32.9475 34.1183C29.7472 34.1183 27.1529 31.524 27.1529 28.3237H38.742Z" fill="#565E70"/>
</svg>
