<svg width="76" height="49" viewBox="0 0 76 49" fill="none" xmlns="http://www.w3.org/2000/svg">
<path d="M0.142822 14.0969C0.142822 6.31141 6.45422 0 14.2397 0H61.8355C69.621 0 75.9324 6.3114 75.9324 14.0969V26.7977C75.9324 34.5832 69.621 40.8946 61.8355 40.8946H0.142822V14.0969Z" fill="#F9F9FC"/>
<path d="M12.9323 36.2141C9.09547 36.2146 0.142822 36.2141 0.142822 36.2141V48.4602C0.142822 48.9675 1.34442 49.0586 1.48711 48.5645C2.19857 46.1012 2.68736 44.0106 4.39388 41.7172C6.82565 38.4491 10.1376 36.2143 12.9323 36.2141Z" fill="#F9F9FC"/>
<circle opacity="0.3" cx="60.7143" cy="20.1429" r="7.14286" fill="#565E70"/>
<circle opacity="0.5" cx="38.4285" cy="20.1429" r="7.14286" fill="#565E70"/>
<circle cx="16.1429" cy="20.1429" r="7.14286" fill="#565E70"/>
</svg>
